<?xml version="1.0" standalone="no"?>
<!DOCTYPE svg PUBLIC "-//W3C//DTD SVG 1.1//EN" "http://www.w3.org/Graphics/SVG/1.1/DTD/svg11.dtd">
<svg xmlns="http://www.w3.org/2000/svg" version="1.1" viewBox="0 0 2259 175">
    <path style="fill:white; stroke:none;" d="M0 0L0 175L2259 175L2259 0L458 0C464.805 8.89227 471.714 9.46069 482 10C479.018 12.9575 474.181 16.1029 472.603 20.0895C470.134 26.3287 472 36.3398 472 43L472 94C472 103.869 470.292 115.019 475 124C455.119 123.835 433.988 123.714 421 142L420 142C407.517 124.278 380.15 118.027 370 142C356.354 131.002 346.907 127.632 331 136L330 135C334.614 126.105 345.133 123.232 349.972 115.61C354.79 108.023 351 87.9527 351 79C344.944 79.0174 339.882 79.4564 338 86C322.117 74.1654 334.946 57.0443 351 57C351 47.2924 353.915 31.8604 349.427 23.044C343.945 12.2732 331.601 20.1628 330 29L326 29C326.423 19.1643 330.004 9.24832 339 4.08873C352.54 -3.67667 370.606 4.14948 372 20C382.307 17.0216 381 10.2173 381 1L386 1L386 14L410 1L374 0L290 0L0 0z"/>
    <path style="fill:black; stroke:none;" d="M386 14L386 1L381 1C381 10.4205 381.629 15.9601 372 20C371.229 3.1716 351.85 -3.86484 338 4.08873C329.133 9.18044 326.198 19.4148 326 29L330 29C332.627 20.1573 343.888 12.7705 349.427 24.0154C353.738 32.7654 351 47.426 351 57C345.165 57.0039 338.943 57.004 334.558 61.5324C328.29 68.0053 329.982 82.0447 338 86C340.753 80.2387 344.947 79.0548 351 79C351 88.085 354.609 106.916 349.972 114.787C345.11 123.042 333.537 124.597 330 135L331 136C335.678 134.298 339.951 131.155 345 130.557C354.959 129.377 362.151 137.485 370 142C384.685 118.522 403.457 125.457 420 142L421 142C437.419 125.717 453.05 123.939 475 124C467.117 103.531 472 74.8108 472 53C472 43.4715 469.945 31.2465 472.318 22.0147C473.56 17.1803 479.171 13.9834 482 10C471.356 8.19902 466.608 7.92323 458 0L457 0L436 13L436 1L431 1L430 15L410.91 1.44676L386 14z"/>
    <path style="fill:white; stroke:none;" d="M411 0C415.726 7.55608 421.422 12.4939 430 15L431 1L436 1L436 13L457 1C445.061 -4.00975 424.003 0 411 0z"/>
    <path style="fill:black; stroke:none;" d="M1 25L20 19.7106L91 23L91 87C91 93.0667 93.3759 105.669 89.3966 110.61C73.5851 130.241 39.3548 117.042 28.4429 100C14.008 77.4562 20.6521 51.9672 36 32L36 31C30.0746 28.7521 25.8861 34.9039 22.0903 39C12.8638 48.9564 5.49833 61.7188 2.42824 75C-7.60654 118.411 32.8935 151.659 74 137.481C88.5114 132.476 114.34 110.767 110 93L108 93L97 107L97 50L97.3179 23.1049L114 4C107.053 4.85118 101.234 7.40541 94 6.91049C62.7294 4.7711 17.322 -12.8202 1 25M1318 61C1315.06 68.3472 1307.87 67.4893 1301 66.5756C1287.82 64.8238 1275.79 63.4855 1270 50L1268 50C1266.52 53.6279 1265.06 57.0996 1264.44 61C1260.39 86.3977 1288.09 83.2118 1304 87L1291 102C1290.94 99.6212 1290.98 97.2067 1289.82 95.0424C1282.44 81.2945 1262.46 98.4173 1274.23 108.486C1279.13 112.677 1287.74 111.257 1293 108.622C1302.13 104.049 1304.25 92.8737 1312.33 88.0278C1315.9 85.8854 1322 87 1326 87C1338.11 87 1351.34 86.8785 1351 102C1360.27 97.4672 1367.48 78.8018 1356.96 71.8434C1348.22 66.0619 1333.08 67 1323 67C1326.71 58.8334 1333.51 61.3856 1341 61.9105C1356.2 62.9755 1375.19 68.7961 1367.93 88C1365.04 95.6464 1356.96 112.57 1348.91 115.672C1343.32 117.827 1332.97 112.748 1327 112.17C1314.2 110.931 1301.11 112.383 1289 116.692C1280.51 119.713 1256.26 130.723 1260 142L1261 142C1276.77 129.883 1295.97 126.363 1315 132.205C1323.29 134.751 1330.72 139.616 1339 142C1342.17 136.312 1346.2 131.184 1350.13 126C1353.21 121.937 1356.38 117.941 1359.61 114C1372.38 98.4234 1404.78 62.3241 1374 46.8102C1369.9 44.7424 1365.5 43.4746 1361 42.6119C1353.48 41.1699 1345.64 40.328 1338 40C1345.29 29.8532 1353.72 19.244 1364 12C1360.84 6.34624 1355.29 11.5537 1350 8.78781C1330.34 -1.48589 1304.98 -2.24509 1287.04 12.5177C1268.21 28.016 1271.22 54.4527 1296 59.1952C1303.15 60.564 1310.73 60.9992 1318 61M150 5C141.878 11.4412 133.43 16.5943 123 18C131.317 38.3818 127 65.2015 127 87C127 95.7865 129.024 107.423 126.682 115.896C124.978 122.06 116.532 125.465 114 132L115 133C121.373 131.543 125.946 130.569 132 133.905C135.191 135.664 139.164 140.77 142.91 140.798C148.024 140.836 157.884 129.267 162 126L162 125C158.027 121.622 149.604 118.789 147.603 113.895C144.572 106.48 144.622 81.5275 147.603 74.0934C149.252 69.9821 155.612 65.7578 160 67.2052C163.272 68.2846 168.984 70.7842 170.397 74.1327C172.24 78.5033 171 85.3269 171 90C171 101.96 172.59 115.177 170.787 127C170.034 131.938 167.048 135.839 167.03 141C166.993 151.565 177.964 160.829 167 169C172.654 179.504 186.099 170.18 186.891 161C187.834 150.071 177.271 147.734 174.176 139.015C170.484 128.617 192.859 132.146 197 133C188.614 120.092 191 104.875 191 90C191 83.7075 189.858 76.1389 191.314 70C192.761 63.8991 197.211 58.3022 199 52C188.015 55.133 182.332 54.9536 176 44L147 65L148.09 23L150 5M690 5C681.878 11.4412 673.43 16.5943 663 18C671.317 38.3818 667 65.2015 667 87C667 95.7865 669.024 107.423 666.682 115.896C664.978 122.06 656.532 125.466 654 132L655 133C661.373 131.543 665.946 130.569 672 133.905C675.191 135.664 679.164 140.77 682.911 140.798C688.024 140.836 697.884 129.267 702 126L702 125C698.026 121.622 689.604 118.789 687.603 113.895C684.572 106.48 684.622 81.5275 687.603 74.0934C689.252 69.9821 695.612 65.7578 700 67.2052C703.272 68.2846 708.984 70.7842 710.397 74.1327C712.24 78.5034 711 85.3269 711 90C711 101.96 712.59 115.177 710.787 127C710.034 131.938 707.048 135.839 707.03 141C706.993 151.565 717.964 160.828 707 169C712.654 179.504 726.099 170.18 726.891 161C727.834 150.071 717.271 147.734 714.176 139.015C710.484 128.617 732.859 132.146 737 133C728.614 120.092 731 104.875 731 90C731 83.7075 729.858 76.1388 731.314 70C732.761 63.8991 737.211 58.3022 739 52C728.015 55.1331 722.332 54.9536 716 44L687 65L688.089 23L690 5M2064 5C2055.88 11.4413 2047.43 16.5943 2037 18C2045.32 38.3817 2041 65.2016 2041 87C2041 95.7865 2043.02 107.422 2040.68 115.896C2038.98 122.06 2030.53 125.465 2028 132L2029 133C2035.37 131.543 2039.95 130.569 2046 133.905C2049.19 135.664 2053.16 140.77 2056.91 140.798C2062.02 140.836 2071.88 129.266 2076 126L2076 125C2072.03 121.622 2063.6 118.789 2061.6 113.895C2058.57 106.48 2058.62 81.5274 2061.6 74.0934C2063.22 70.0585 2069.65 65.6891 2074 67.0664C2077.24 68.0919 2083.01 70.8512 2084.4 74.1327C2086.24 78.5036 2085 85.3267 2085 90C2085 101.96 2086.59 115.177 2084.79 127C2084.03 131.938 2081.05 135.839 2081.03 141C2080.99 151.565 2091.96 160.829 2081 169C2086.65 179.505 2100.1 170.18 2100.89 161C2101.83 150.071 2091.27 147.734 2088.18 139.015C2084.48 128.616 2106.86 132.146 2111 133C2102.61 120.092 2105 104.874 2105 90C2105 83.7076 2103.86 76.1388 2105.31 70C2106.76 63.8991 2111.21 58.3022 2113 52C2102.02 55.1329 2096.33 54.9539 2090 44L2061 65L2062.09 23L2064 5z"/>
    <path style="fill:white; stroke:none;" d="M1309 10.7114C1299.01 10.8438 1276.62 22.3733 1290.23 34.2106C1298.67 41.5561 1315.52 40.4403 1326 39.9807C1332.49 39.6956 1339.54 31.1496 1335.41 25C1329.76 16.5913 1319.18 10.5766 1309 10.7114M389.148 18.8904C384.905 20.0366 386 26.768 386 30C385.999 39.0074 383.835 53.1055 397.852 48.5664C406.148 45.8797 401.504 15.5533 389.148 18.8904M450 22C446.769 21.424 440.601 17.3759 437.603 19.284C434.242 21.4231 434.581 44.233 437.028 47.2577C441.057 52.2378 449.726 48.765 449.981 42.9954C450.112 40.0072 450 36.9909 450 34L450 22z"/>
    <path style="fill:black; stroke:none;" d="M753 33C758.37 32.7173 761.879 36.2128 767 37.1381C777.375 39.0127 784.414 31.2272 789 23C777.354 22.6388 770.212 17.1975 760 23.9213C756.147 26.4584 752.249 27.9311 753 33M1012 19C1005.03 25.028 997.486 30.5655 988 31L990 50L977 49L977 64L990 63C990 79.4485 993.77 101.086 989.682 116.985C988.116 123.076 980.778 124.796 979 131C992.66 131 998.192 136.745 1010 142L1028 123L1028 122L1010 117L1010 63L1026 64L1026 48L1010 50L1012 19M1426 19C1419.03 25.028 1411.49 30.5655 1402 31L1404 50L1391 49L1391 64L1404 63C1404 79.4486 1407.77 101.086 1403.68 116.985C1402.12 123.076 1394.78 124.796 1393 131C1406.66 131 1412.19 136.745 1424 142L1442 123L1442 122L1424 117L1424 63L1440 64L1440 48L1424 50L1426 19z"/>
    <path style="fill:white; stroke:none;" d="M380 22L373 25L373 94C373 104.521 370.091 114.881 381 120L381 52L380 22M431 119L431 22C419.773 23.942 422 32.73 422 42L422 99C422 108.062 420.236 116.528 431 119z"/>
    <path style="fill:black; stroke:none;" d="M72 29C63.8106 34.9495 45.3738 39.5834 45 51L52 48C52 67.4718 55.8603 91.5948 49 110C53.9913 110.961 57.8765 108.265 61.9961 105.56C78.7156 94.5812 74 68.1904 74 51C74 44.5773 75.9956 34.2741 72 29M212 57C217.751 71.0219 216 86.0233 216 101C216 106.36 217.346 113.903 215.397 118.961C213.603 123.614 208.363 126.457 206 131L207 132C216.68 129.695 226.799 131.318 236 134.814C239.985 136.328 247.579 141.932 251.826 140.582C257.546 138.764 272.2 121.026 265 117C258.541 124.657 245.123 116.188 236 116C236 111.302 234.721 104.335 237.028 100.093C242.604 89.8422 262.461 83.2919 272 77L255 44C240.227 50.8974 228.666 57 212 57M511 44L488 60C491.787 68.268 500.647 77.7114 508 83L508 84C499.53 88.8961 491.775 97.2144 489.529 107C485.719 123.603 496.027 142.704 515 141.681C522.665 141.268 529.122 131.141 535 127C535.713 133.916 544.32 145.49 552.674 140.933C557.697 138.193 563.254 128.265 565 123C560.279 123.183 556.739 121.761 554.893 116.995C551.084 107.158 554 91.488 554 81C554 76.7351 553.052 71.0817 554.603 67.0394C556.702 61.5722 561.863 59.279 563 53C552.832 54.8866 549.716 50.9252 543 44C537.901 50.8594 528.423 62.6745 519.093 55.4275C515.203 52.4059 513.858 47.7604 511 44M618 44C605.873 55.8685 593.016 57.0177 577 54C582.396 68.4757 581.668 88.4008 577 103L592 103C581.378 113.711 572.7 125.58 568 140L573 141C580.57 126.449 593.699 131.135 602 142C616.355 132.186 627.415 127.347 645 132C640.297 117.292 639.41 96.5154 645 82L622 82C632.003 71.7861 642.967 59.0017 647 45C641.961 44.8387 639.598 48.3432 635 49.5656C628.614 51.2636 623.137 47.0922 618 44M768 44C763.035 48.9652 746.609 58.8417 749 66C758.742 63.8717 759 72.802 759 80C759 95.3359 756.605 112.911 759.329 128C762.018 142.89 775.377 142.607 784 134C787.208 130.797 790.389 127.707 793 124L780.742 118.944L779 106L779.6 68.1844L791 53C779.445 53.912 776.899 50.7793 768 44M796 64C812.838 67.6724 808 88.7699 808 102C808 106.767 809.175 113.417 807.397 117.91C805.05 123.84 798.6 126.271 797 133C809.07 130.241 815.769 133.962 825 142L826 142L843 128L843 126C839.082 123.218 830.55 120.262 828.603 115.787C827.156 112.46 828 107.552 828 104C828 95.2725 825.302 81.2115 828.603 73.1042C829.853 70.0355 836.08 65.1672 839.576 65.7145C843.186 66.2797 850.724 71.4569 851.682 75.044C855.994 91.197 849.901 110.406 852.3 127C853.172 133.032 858.963 144.004 866.91 140.787C870.39 139.378 872.793 134.78 875.084 132C877.797 128.708 880.593 125.52 883 122L873.858 118.771L872 106L872.588 68L879 52C868.467 55.739 863.196 53.7429 857 44L828 64C827.861 57.4879 825.13 44.4838 816.039 45.2415C810.94 45.6665 798.586 59.5307 796 64M893 56L896 100L895.4 117.961L886 131L887 132C899.004 127.625 907.321 132.596 915 142L916 142L940 123C942.027 129.89 949.944 136.643 949.583 144C949.365 148.447 944.567 153.876 940 153.933C934.428 154.002 928.693 151.269 923 151.129C910.458 150.819 894.707 157.852 890 170C897.324 168.325 903.071 164.016 911 165.67C916.556 166.828 924.814 174.421 930 173.252C934.229 172.299 937.834 167.141 941 164.428C949.252 157.358 967.015 148.61 968.786 137C970.262 127.321 961.92 120.077 960.329 111C958.521 100.691 956.762 77.9029 960.6 68.1698C962.618 63.0491 967.704 59.2524 970 54L969 53C958.608 56.2932 951.522 52.4886 945 44C927.327 51.3581 912.629 58.4808 893 56M1091 44C1076.13 54.5833 1056.11 60.3618 1038 57L1041 99L1040.68 117.907L1030 133C1036.89 130.353 1042.48 130.004 1049 134.133C1051.99 136.029 1055.27 140.669 1059 140.833C1063.96 141.05 1071.19 133.832 1076 131.926C1086.98 127.575 1098.37 127 1110 127C1103.58 114.73 1106 99.571 1106 86C1106 80.8299 1104.82 73.9134 1106.6 69C1108.42 63.9964 1112.88 60.0578 1115 55C1102.83 56.5373 1099.88 51.1564 1091 44M1120 64C1136.84 67.6724 1132 88.7699 1132 102C1132 106.767 1133.17 113.417 1131.4 117.91C1129.05 123.84 1122.6 126.271 1121 133C1133.33 130.182 1139.42 134.224 1149 142L1150 142L1167 128L1167 126C1163.08 123.218 1154.55 120.262 1152.6 115.787C1151.16 112.46 1152 107.552 1152 104C1152 95.2725 1149.3 81.2115 1152.6 73.1042C1153.85 70.0355 1160.08 65.1672 1163.58 65.7145C1167.19 66.2797 1174.72 71.4569 1175.68 75.044C1179.99 91.197 1173.9 110.406 1176.3 127C1177.17 133.032 1182.96 144.003 1190.91 140.787C1194.39 139.378 1196.79 134.78 1199.08 132C1201.8 128.708 1204.59 125.52 1207 122L1197.46 117.867L1196 104L1196.59 68L1203 52C1192.47 55.739 1187.2 53.7429 1181 44L1152 64C1151.86 57.4878 1149.13 44.4838 1140.04 45.2415C1134.94 45.6665 1122.59 59.5308 1120 64M1449 57C1454.75 71.022 1453 86.0232 1453 101C1453 106.36 1454.35 113.903 1452.4 118.961C1450.6 123.614 1445.36 126.457 1443 131L1444 132C1453.68 129.695 1463.8 131.318 1473 134.814C1476.98 136.328 1484.58 141.932 1488.83 140.582C1494.55 138.764 1509.2 121.026 1502 117C1495.95 124.756 1481.87 116.183 1473 116C1473 111.302 1471.72 104.335 1474.03 100.093C1479.6 89.8422 1499.46 83.2919 1509 77L1492 44C1477.28 50.8715 1465.59 57 1449 57M1513 64C1529.84 67.6724 1525 88.7699 1525 102C1525 106.767 1526.17 113.417 1524.4 117.91C1522.05 123.84 1515.6 126.271 1514 133C1526.07 130.241 1532.77 133.962 1542 142L1543 142L1560 128L1560 126C1556.08 123.218 1547.55 120.262 1545.6 115.787C1544.16 112.46 1545 107.552 1545 104C1545 95.2725 1542.3 81.2115 1545.6 73.1042C1546.85 70.0355 1553.08 65.1672 1556.58 65.7145C1560.19 66.2797 1567.72 71.4569 1568.68 75.044C1572.99 91.197 1566.9 110.406 1569.3 127C1570.17 133.032 1575.96 144.003 1583.91 140.787C1587.39 139.378 1589.79 134.78 1592.08 132C1594.8 128.708 1597.59 125.52 1600 122L1590.46 117.867L1589 104L1589.59 68L1596 52C1585.47 55.739 1580.2 53.7429 1574 44L1545 64C1544.86 57.4878 1542.13 44.4838 1533.04 45.2415C1527.94 45.6665 1515.59 59.5308 1513 64M1664 44C1649.12 54.5969 1629.14 60.3678 1611 57L1614 99L1613.68 117.907L1603 133C1609.89 130.353 1615.48 130.004 1622 134.133C1624.99 136.029 1628.27 140.669 1632 140.833C1636.96 141.05 1644.19 133.832 1649 131.926C1659.9 127.608 1671.45 127 1683 127C1676.58 114.73 1679 99.571 1679 86C1679 80.8299 1677.82 73.9134 1679.6 69C1681.42 63.9964 1685.88 60.0578 1688 55C1675.82 56.5373 1672.88 51.1565 1664 44M1700 56L1703 100L1702.4 117.961L1693 131L1694 132C1706 127.625 1714.32 132.596 1722 142L1723 142L1747 123C1749.03 129.89 1756.94 136.643 1756.58 144C1756.37 148.447 1751.57 153.876 1747 153.933C1741.72 153.998 1736.38 151.264 1731 151.129C1718.11 150.806 1701.9 157.348 1697 170C1704.94 168.185 1710.44 164.145 1719 166.015C1724.31 167.176 1731.95 174.391 1737 173.252C1741.23 172.299 1744.83 167.141 1748 164.428C1756.25 157.358 1774.01 148.61 1775.79 137C1777.26 127.321 1768.92 120.077 1767.33 111C1765.52 100.691 1763.76 77.9031 1767.6 68.1698C1769.62 63.0492 1774.7 59.2523 1777 54L1776 53C1765.61 56.2931 1758.52 52.4886 1752 44C1734.33 51.358 1719.63 58.4808 1700 56M1783 64C1799.61 67.9924 1795 87.7136 1795 101C1795 105.75 1796.19 112.436 1794.4 116.907C1791.8 123.395 1784.5 125.223 1783 133C1796.1 129.534 1803.64 133.783 1814 142L1815 142C1819.3 137.704 1833.79 127.486 1833.79 121.164C1833.79 118.914 1819.59 118.5 1816.6 115.301C1814.23 112.76 1815 108.182 1815 105C1815 96.7498 1812.26 82.4426 1816.03 75.0015C1820.62 65.9477 1827.74 72.9711 1835 72.9707C1846.57 72.9699 1850.91 63.162 1851 53C1842.38 56.2942 1837.72 53.4664 1834 45L1832 45L1815 66C1814.72 59.7967 1811.27 45.4585 1803.01 45.3457C1798.33 45.2816 1785.24 59.8433 1783 64M1878 44L1855 60C1858.8 68.1889 1867.69 77.7446 1875 83L1875 84C1866.53 88.8961 1858.78 97.2144 1856.53 107C1852.72 123.603 1863.03 142.704 1882 141.681C1889.67 141.268 1896.12 131.141 1902 127C1902.71 133.916 1911.32 145.489 1919.67 140.933C1924.7 138.193 1930.25 128.265 1932 123C1927.33 123.181 1923.58 121.75 1921.74 116.995C1917.99 107.3 1921 91.3611 1921 81C1921 76.7351 1920.05 71.0818 1921.6 67.0394C1923.7 61.5723 1928.86 59.2789 1930 53C1919.83 54.8865 1916.72 50.9254 1910 44C1904.84 50.7767 1895.37 62.634 1886.09 55.4275C1882.2 52.4059 1880.86 47.7604 1878 44M1957 44L1939 66C1954.36 68.782 1951 87.2202 1951 99C1951 103.498 1952.12 109.854 1949.97 113.961C1946.05 121.462 1935.06 124.905 1937 135L1951 129L1947 174L1975 166L1971 134L1980.01 140.698L1993 134.616L2019 129C2014.23 115.573 2015 102.12 2015 88C2015 82.9136 2013.75 75.8434 2015.6 71.0394C2017.86 65.1964 2024.07 62.4839 2026 56C2015.02 57.3802 2010.98 52.7863 2005 44L1971 70C1970.99 58.4137 1969.08 48.2222 1957 44M2126 57C2132.11 70.6879 2130 86.2429 2130 101C2130 106.36 2131.35 113.903 2129.4 118.961C2127.6 123.614 2122.36 126.457 2120 131L2121 132C2130.68 129.695 2140.8 131.318 2150 134.814C2153.98 136.328 2161.58 141.932 2165.83 140.582C2171.55 138.764 2186.2 121.027 2179 117C2172.44 124.784 2159.19 116.19 2150 116C2150 111.302 2148.72 104.335 2151.03 100.093C2156.6 89.8422 2176.46 83.2919 2186 77L2169 44C2154.23 50.8973 2142.67 57 2126 57M2190 64C2206.61 67.9923 2202 87.7137 2202 101C2202 105.75 2203.19 112.436 2201.4 116.907C2199.2 122.39 2192.09 126.452 2189 132L2202 131.189L2221 142L2222 142C2226.3 137.704 2240.79 127.485 2240.79 121.164C2240.79 118.914 2226.59 118.5 2223.6 115.301C2221.23 112.76 2222 108.183 2222 105C2222 96.7497 2219.26 82.4426 2223.03 75.0015C2227.62 65.9477 2234.74 72.9711 2242 72.9707C2253.45 72.9699 2257.92 63.0861 2258 53C2249.38 56.2942 2244.72 53.4664 2241 45L2239 45L2222 66C2221.72 59.7968 2218.27 45.4585 2210.01 45.3457C2205.27 45.2808 2192.25 59.7995 2190 64z"/>
    <path style="fill:white; stroke:none;" d="M386 54L386 83L401 83L401 54L386 54M436 54L436 83L450 83L450 54L436 54M236 91L252 82L240 59C232.337 62.0804 236 83.6784 236 91M600 60L600 91C611.014 90.1697 626.177 71.8841 630 62L616 64.466L600 60M916 61L916 117C920.67 117.833 926.381 122.92 931 121.357C944.755 116.704 940 96.4459 940 85C940 80.7961 941.221 74.2679 939.397 70.3904C937.2 65.7199 929.291 63.5623 926 59L916 61M1473 91L1489 82L1477 59C1469.34 62.0803 1473 83.6784 1473 91M1723 61L1723 117C1727.67 117.833 1733.38 122.92 1738 121.357C1751.76 116.704 1747 96.4458 1747 85C1747 80.7961 1748.22 74.2679 1746.4 70.3904C1744.2 65.7199 1736.29 63.5622 1733 59L1723 61M2150 91L2166 82L2154 59C2146.34 62.0802 2150 83.6785 2150 91M1085 123L1085 69C1077.88 66.9434 1071.13 58.2661 1063.32 62.7029C1058.53 65.4208 1061 80.1636 1061 85C1061 93.0598 1058.21 107.382 1061.6 114.722C1064.57 121.152 1078.91 124.125 1085 123M1658 123L1658 69C1651.04 66.9911 1643.93 58.0744 1636.32 62.5139C1631.52 65.3079 1634 80.1107 1634 85C1634 93.0598 1631.21 107.382 1634.6 114.722C1637.57 121.152 1651.91 124.125 1658 123M503 68L529 100C520.663 101.315 517.02 92.3299 511 88C499.792 107.718 513.49 123.711 534 123L534 81C534 75.3791 535.19 69.0504 528.981 66.3873C524.667 64.5376 521.094 67.631 517 68.6451C512.224 69.8279 507.716 68.9115 503 68M1870 68L1896 100C1887.66 101.315 1884.02 92.33 1878 88C1866.81 107.683 1880.49 123.824 1901 123L1901 81C1901 75.379 1902.19 69.0504 1895.98 66.3873C1891.67 64.5376 1888.09 67.631 1884 68.6451C1879.22 69.828 1874.72 68.9115 1870 68M1987 66.2724C1970.27 68.7591 1971 84.478 1971 97C1971 101.215 1969.77 107.815 1971.6 111.698C1973.16 114.992 1979.17 116.35 1982 118.529C1984.67 120.587 1989.22 127.724 1992.77 127.654C1996.48 127.582 1995 115.422 1995 113C1995 100.342 1995.24 87.6591 1995 75.0039C1994.91 70.5563 1992.47 65.459 1987 66.2724M386 121C389.854 119.398 396.358 117.867 399.397 115.066C402.641 112.074 402.349 94.2809 400.397 90.4336C398.643 86.9788 389.343 86.8806 387.028 89.7423C382.649 95.1541 386 114.09 386 121M436 123C439.486 122.068 446.675 121.226 448.972 118.272C451.68 114.791 451.714 93.0649 448.972 89.6034C446.815 86.8801 438.204 87.0648 436.603 90.3179C434.514 94.5639 436 102.347 436 107L436 123M586 120C592.286 117.579 598.31 115.05 605 117.562C609.062 119.088 615.106 126.088 619.682 124.339C622.427 123.289 621.983 119.329 621.999 117C622.052 109.334 622 101.666 622 94C605.402 94 594.174 105.792 586 120z"/>
</svg>
